<svg id="Layer_1" data-name="Layer 1" xmlns="http://www.w3.org/2000/svg" viewBox="0 0 862 646"><defs><style>.cls-1,.cls-2{fill:#fff;}.cls-2{fill-rule:evenodd;}</style></defs><title>IOTA Foundation Type White</title><path class="cls-1" d="M189.5,192.17h15.1V324.45H189.5Z"/><path class="cls-1" d="M253.08,258.17c0-37,31.07-68.46,67.49-68.46,36.74,0,67.33,31.12,67.33,68.46s-30.83,68.45-67.33,68.45C284.31,326.82,253.08,295.5,253.08,258.17Zm119.73,0c0-29.36-23.89-54.38-52.24-54.38s-52.39,25-52.39,54.38c0,29.64,24,54.66,52.39,54.66S372.81,287.81,372.81,258.17Z"/><path class="cls-1" d="M465.14,206.35H420.81V192.17H524.4v14.28H480.07v118H465Z"/><path class="cls-1" d="M603.39,210.59l-50,113.87H537l54.79-124.9a12.52,12.52,0,0,1,11.42-7.49,12.15,12.15,0,0,1,11.34,7.49l54.87,124.8H653.07Z"/><path class="cls-1" d="M189.58,453H196V434.06h21.81v-5.62H196V416h22.21v-5.62h-28.6Z"/><path class="cls-1" d="M232.87,431.7c0,12.65,8.71,22,21.49,22s21.4-9.39,21.4-22-8.7-22-21.4-22S232.87,419.05,232.87,431.7Zm36.34,0c0,9.33-5.91,16.36-14.85,16.36-9.19,0-14.94-7-14.94-16.36s5.75-16.36,14.94-16.36C263.3,415.34,269.21,422.31,269.21,431.7Z"/><path class="cls-1" d="M293.1,436.3c0,10.48,6,17.44,18,17.44s17.89-6.9,17.89-17.5V410.36h-6.47v25.75c0,7.28-4,11.95-11.42,11.95s-11.5-4.67-11.5-11.95V410.36H293.1Z"/><path class="cls-1" d="M378,453h6.23V410.36h-6.39v31.95L354.6,410.36h-6.55V453h6.39V420.26Z"/><path class="cls-1" d="M403.24,453h15.17c13.34,0,22.13-9,22.13-21.28s-8.79-21.34-22.13-21.34H403.24Zm6.39-5.63V416h8.78c10.07,0,15.58,7,15.58,15.72s-5.67,15.65-15.58,15.65Z"/><path class="cls-1" d="M486,453h7l-16.93-42.62h-8L451.16,453h7l3.43-8.82h20.93Zm-13.9-37.06,8.63,22.55H463.46Z"/><path class="cls-1" d="M513.86,453h6.39V416h13.18v-5.62H500.68V416h13.18Z"/><path class="cls-1" d="M549.72,453h6.39V410.36h-6.39Z"/><path class="cls-1" d="M573.36,431.7c0,12.65,8.79,22,21.49,22s21.48-9.39,21.48-22-8.79-22-21.48-22S573.36,419.05,573.36,431.7Zm36.42,0c0,9.33-5.91,16.36-14.93,16.36S580,441,580,431.7s5.75-16.36,14.86-16.36S609.78,422.31,609.78,431.7Z"/><path class="cls-1" d="M663.61,453h6.15V410.36h-6.39v31.95l-23.16-31.95h-6.63V453H640V420.26Z"/><path class="cls-2" d="M670.72,373.56H189.5V368H670.72Z"/></svg>